<?xml version="1.0" standalone="no"?>
<!DOCTYPE svg PUBLIC "-//W3C//DTD SVG 20010904//EN"
 "http://www.w3.org/TR/2001/REC-SVG-20010904/DTD/svg10.dtd">
<svg version="1.0" xmlns="http://www.w3.org/2000/svg"
 width="1080.000000pt" height="1080.000000pt" viewBox="0 0 1080.000000 1080.000000"
 preserveAspectRatio="xMidYMid meet">

<g transform="translate(0.000000,1080.000000) scale(0.100000,-0.100000)"
fill="#000000" stroke="none">
<path d="M1348 10750 c-412 -130 -858 -330 -1231 -554 l-117 -70 0 -124 c0
-96 3 -122 13 -116 6 5 41 28 77 52 360 246 860 487 1317 636 261 85 472 133
833 191 l205 33 -470 0 -470 1 -157 -49z"/>
<path d="M4915 10784 c670 -94 838 -121 1132 -180 443 -88 867 -193 1258 -311
434 -130 1245 -403 1297 -437 13 -8 88 -40 168 -71 80 -31 154 -65 165 -75 11
-9 92 -52 179 -94 88 -42 165 -85 173 -95 7 -11 43 -36 80 -57 166 -91 261
-151 298 -187 22 -21 121 -95 220 -163 121 -84 197 -144 230 -182 28 -32 77
-79 110 -104 104 -80 284 -245 433 -396 l142 -145 0 175 0 175 -97 90 c-140
127 -268 234 -423 350 -74 55 -153 120 -176 144 -24 27 -108 85 -211 147 -94
57 -195 124 -224 149 -30 25 -119 78 -209 123 -86 43 -163 86 -170 96 -16 19
-137 77 -260 126 -41 16 -80 36 -86 44 -6 8 -80 39 -165 70 -85 30 -163 62
-175 69 -11 7 -86 34 -165 58 -79 25 -229 73 -334 106 -785 252 -1311 393
-2025 543 l-205 43 -530 1 c-492 2 -523 1 -430 -12z"/>
<path d="M9750 10784 c25 -8 106 -31 180 -50 74 -20 142 -42 150 -49 29 -25
82 -46 198 -80 64 -19 205 -64 312 -100 107 -36 198 -65 202 -65 4 0 8 81 8
180 l0 180 -547 -1 c-492 -1 -543 -2 -503 -15z"/>
<path d="M3395 10313 c-406 -35 -999 -133 -1379 -229 -702 -176 -1358 -530
-1938 -1048 l-78 -69 0 -110 0 -110 88 84 c555 532 1223 917 1904 1099 318 84
825 184 1122 221 102 12 101 12 396 151 l35 17 -55 -1 c-30 -1 -73 -3 -95 -5z"/>
<path d="M4771 10196 l-54 -55 34 -5 c19 -3 135 -17 258 -31 1002 -117 1782
-331 2746 -753 331 -145 764 -357 850 -417 33 -23 86 -56 118 -73 104 -57 216
-133 222 -151 3 -10 15 -23 28 -28 45 -21 294 -213 317 -246 14 -18 68 -71
120 -117 154 -135 213 -192 255 -250 22 -30 76 -93 120 -140 183 -194 295
-321 295 -335 0 -11 87 -138 150 -217 34 -43 57 -78 53 -78 -5 0 -60 21 -123
46 -276 111 -548 164 -935 184 -212 10 -285 7 -285 -14 0 -7 37 -51 83 -98
l83 -85 100 -7 c464 -32 842 -153 1294 -413 l95 -54 103 -172 102 -172 -2 255
-3 255 -76 43 c-47 28 -84 58 -99 81 -94 142 -234 329 -363 484 -98 119 -177
227 -177 243 0 5 -75 83 -166 174 -91 91 -199 204 -240 252 -43 51 -133 135
-212 199 -75 62 -145 121 -155 133 -45 53 -67 70 -205 163 -80 54 -154 108
-164 119 -19 23 -117 84 -218 134 -36 18 -86 48 -112 66 -25 19 -92 55 -148
79 -55 25 -133 62 -173 81 -166 84 -660 291 -962 403 -615 229 -1218 388
-1845 486 -166 26 -609 85 -639 85 -9 0 -41 -24 -70 -54z"/>
<path d="M4516 9915 c-53 -64 -96 -120 -96 -125 0 -6 7 -10 16 -10 36 0 234
-74 324 -121 113 -60 247 -153 327 -230 l58 -56 110 -17 c61 -10 155 -26 209
-37 55 -10 101 -17 103 -15 2 1 -5 14 -15 27 -11 13 -23 35 -27 49 -4 13 -22
45 -39 70 -159 231 -305 351 -575 474 -66 30 -278 106 -295 106 -2 0 -47 -52
-100 -115z"/>
<path d="M4211 9501 l-21 -29 88 -6 c48 -3 119 -8 157 -11 l70 -5 -40 16 c-37
14 -145 44 -207 58 -22 5 -31 1 -47 -23z"/>
<path d="M1909 9255 c-3 -2 -95 -16 -205 -30 -226 -28 -316 -45 -441 -80 -424
-121 -762 -346 -956 -639 -97 -145 -201 -347 -261 -503 l-46 -122 0 -253 0
-253 59 125 c119 254 249 519 290 588 212 363 579 659 981 790 72 23 269 72
293 72 1 0 69 70 151 155 81 85 146 155 143 155 -2 0 -6 -2 -8 -5z"/>
<path d="M4806 9135 c34 -30 88 -87 119 -126 l58 -72 -54 7 c-30 3 -83 9 -119
13 l-65 6 35 -39 c20 -21 42 -49 50 -60 13 -18 43 -26 210 -53 107 -17 212
-34 234 -37 l38 -7 -7 32 c-18 82 -32 94 -133 107 -51 6 -53 8 -97 73 -24 37
-70 96 -102 130 -52 56 -64 64 -108 72 -28 4 -66 8 -85 8 l-35 0 61 -54z"/>
<path d="M5350 9097 c0 -5 9 -24 20 -41 28 -47 86 -202 100 -268 10 -51 15
-59 38 -64 15 -3 69 -17 120 -30 52 -13 96 -24 99 -24 9 0 -5 98 -22 165 -9
33 -20 91 -25 128 -4 38 -11 71 -13 74 -6 5 -143 37 -249 57 -42 8 -68 9 -68
3z"/>
<path d="M3927 9007 c-4 -10 18 -17 86 -26 106 -14 224 -44 276 -70 20 -10 65
-21 100 -23 56 -4 61 -3 45 9 -39 29 -181 91 -245 107 -82 20 -255 22 -262 3z"/>
<path d="M4555 8958 c22 -18 53 -47 70 -64 22 -22 43 -32 78 -37 l48 -7 -19
28 c-11 15 -38 43 -59 63 -32 30 -49 37 -99 43 l-59 7 40 -33z"/>
<path d="M3886 8924 c-3 -9 -6 -16 -6 -17 0 -1 59 -3 131 -4 72 0 129 1 126 3
-4 4 -201 34 -228 34 -9 0 -20 -7 -23 -16z"/>
<path d="M3995 8879 c134 -18 252 -59 358 -126 22 -13 41 -22 44 -20 9 10 -71
88 -109 108 -62 32 -156 49 -263 48 l-100 -2 70 -8z"/>
<path d="M3874 8774 c-42 -15 -76 -51 -88 -94 -6 -21 -5 -22 4 -7 7 10 23 17
43 17 32 0 32 -1 -20 -31 l-51 -30 -50 -152 c-87 -265 -149 -524 -187 -782
-20 -132 -47 -427 -40 -434 3 -2 5 2 5 10 0 43 225 696 355 1029 68 174 94
222 139 249 74 46 136 7 136 -87 0 -14 -42 -127 -94 -251 -169 -405 -329 -881
-476 -1415 -45 -164 -51 -196 -45 -245 11 -97 55 -375 63 -397 l7 -21 174 29
c96 16 185 27 198 23 41 -10 63 -41 63 -88 0 -23 -6 -52 -14 -63 -19 -27 -133
-60 -251 -74 -100 -12 -125 -18 -125 -29 0 -9 29 -110 37 -131 4 -8 7 -19 7
-25 1 -5 13 -9 26 -8 14 1 50 4 82 5 31 2 54 5 52 8 -3 2 23 12 57 21 61 17
89 16 89 -2 0 -12 27 -11 35 1 3 5 0 7 -8 4 -8 -3 -20 2 -27 11 -11 13 -10 18
6 30 10 8 29 13 40 10 13 -3 27 2 35 12 13 15 12 15 -10 3 -23 -12 -22 -9 8
29 18 22 35 41 37 41 7 0 -1 -25 -11 -32 -6 -5 -5 -8 3 -8 17 0 43 63 45 109
1 20 6 39 12 43 6 5 5 12 -3 20 -6 6 -12 23 -11 37 0 23 1 23 8 7 6 -17 8 -17
14 -4 7 21 -3 59 -14 52 -5 -3 -6 2 -3 10 4 10 1 16 -10 16 -10 0 -13 6 -10
15 4 8 2 15 -3 15 -5 0 -18 7 -29 16 -18 14 -18 15 4 4 29 -14 40 -6 22 15
-18 22 -79 64 -62 43 25 -31 -5 -27 -38 5 -19 18 -30 25 -26 17 4 -9 2 -8 -7
2 -8 10 -16 15 -19 13 -3 -3 -11 1 -18 10 -7 8 -19 15 -27 15 -12 0 -13 -3 -4
-13 9 -12 1 -12 -47 -5 -127 20 -173 48 -187 116 -7 36 2 92 15 92 5 0 7 -8 4
-17 -2 -10 1 -8 8 5 9 19 9 28 -1 44 -9 15 -9 23 -1 33 7 8 8 20 4 26 -5 8 -2
10 7 7 11 -4 16 3 17 31 4 53 11 71 28 64 8 -3 14 1 15 8 1 22 6 43 23 103 12
39 21 54 29 49 8 -5 8 -2 -1 9 -10 12 -10 21 -1 42 7 14 15 24 18 22 3 -2 6
13 6 33 1 20 9 63 18 96 10 33 25 84 33 113 11 37 22 56 37 62 12 5 16 9 9 9
-8 1 -10 9 -6 27 5 21 4 25 -6 19 -9 -6 -11 -4 -5 5 6 10 11 9 22 -5 7 -11 13
-14 13 -8 0 6 -6 16 -14 22 -11 9 -12 20 -4 51 6 22 14 40 19 40 5 0 6 -6 3
-14 -4 -11 0 -13 17 -9 13 4 18 8 11 11 -18 6 -14 22 6 22 13 0 14 2 4 9 -12
7 -9 25 13 97 14 49 33 94 41 100 12 10 12 13 2 17 -8 4 -7 6 5 6 19 1 24 21
5 21 -9 0 -10 3 -2 8 6 4 10 15 8 25 -1 9 2 17 7 17 6 0 7 5 4 10 -3 6 1 18
11 27 16 16 16 16 10 -7 l-7 -25 20 25 c11 14 18 31 16 38 -3 6 -8 19 -12 29
-4 10 -2 14 4 10 7 -5 9 0 6 13 -3 11 0 20 6 20 6 0 11 -5 11 -12 0 -6 3 -8 6
-5 4 4 1 13 -5 21 -8 10 -9 16 -1 21 6 3 8 10 5 15 -6 10 20 80 30 80 3 0 3
-12 0 -27 l-6 -28 15 30 c8 17 24 56 37 88 14 37 25 54 30 46 4 -7 5 -19 1
-28 -8 -24 5 -10 22 24 10 20 12 33 5 41 -7 8 -5 28 7 63 19 58 28 67 20 19
-6 -31 -5 -31 5 -8 l10 25 22 -36 c20 -33 24 -36 41 -24 10 8 15 19 11 25 -3
6 -3 25 0 42 l7 32 13 -24 13 -24 6 32 c5 19 2 40 -6 54 l-13 23 -3 -28 c-2
-20 -8 -27 -18 -23 -10 4 -14 -2 -14 -21 0 -14 -3 -24 -6 -20 -4 3 -8 41 -9
84 -2 43 -6 95 -10 117 -5 26 -4 37 3 32 6 -4 9 11 7 42 -3 63 -14 99 -31 106
-11 4 -12 2 -4 -14 15 -29 30 -70 25 -70 -9 0 -54 98 -48 104 4 3 -3 6 -15 6
-11 0 -24 5 -28 12 -5 7 -3 8 7 3 33 -20 -18 29 -53 51 -66 42 -248 74 -248
44 0 -5 -9 -10 -20 -10 -11 0 -38 -7 -60 -16 -23 -9 -43 -14 -46 -11 -3 3 12
10 33 17 21 7 42 16 48 21 13 12 -2 10 -51 -7z m184 -1 c-10 -2 -26 -2 -35 0
-10 3 -2 5 17 5 19 0 27 -2 18 -5z m118 -27 c28 -13 55 -30 60 -37 4 -7 -10
-2 -31 11 -22 13 -59 30 -85 36 -30 9 -37 13 -20 13 14 1 48 -10 76 -23z m149
-292 c2 -38 2 -60 -1 -49 -2 11 -9 40 -15 65 -6 25 -13 54 -16 65 -5 18 -4 19
11 4 11 -10 18 -38 21 -85z m-122 -394 c-9 -22 -18 -38 -20 -36 -5 5 24 76 31
76 2 0 -3 -18 -11 -40z m-96 -2092 c-3 -7 -5 -2 -5 12 0 14 2 19 5 13 2 -7 2
-19 0 -25z"/>
<path d="M4383 8532 c-1 -38 3 -72 10 -80 6 -8 10 -30 8 -49 -2 -23 1 -33 8
-29 6 4 11 17 11 29 0 20 0 20 15 1 13 -18 14 -17 15 16 0 19 -9 49 -20 65
-11 17 -20 44 -20 61 0 17 -6 36 -13 42 -9 8 -13 -4 -14 -56z"/>
<path d="M5535 8433 c3 -27 20 -127 37 -223 27 -160 34 -182 75 -260 55 -104
99 -141 222 -191 69 -27 111 -38 178 -43 194 -15 399 -68 574 -149 100 -45
283 -151 439 -252 247 -160 310 -191 465 -224 96 -21 395 12 395 43 0 3 -33
31 -72 62 -40 32 -89 72 -108 90 -38 36 -107 64 -157 64 -17 0 -34 4 -37 8 -3
5 -36 21 -73 37 -68 28 -132 70 -313 200 -335 243 -653 357 -1068 384 l-128 8
-86 84 c-95 93 -99 102 -114 261 -4 43 -12 82 -18 87 -10 8 -191 61 -210 61
-4 0 -5 -21 -1 -47z"/>
<path d="M4964 8245 c28 -114 32 -124 56 -128 14 -3 27 -4 29 -1 4 3 -46 235
-51 239 -2 1 -17 5 -33 8 l-31 6 30 -124z"/>
<path d="M4286 8185 c-9 -26 -7 -32 5 -12 6 10 9 21 6 23 -2 3 -7 -2 -11 -11z"/>
<path d="M4226 8035 c-9 -26 -7 -32 5 -12 6 10 9 21 6 23 -2 3 -7 -2 -11 -11z"/>
<path d="M4206 7985 c-9 -26 -7 -32 5 -12 6 10 9 21 6 23 -2 3 -7 -2 -11 -11z"/>
<path d="M4156 7855 c-9 -26 -7 -32 5 -12 6 10 9 21 6 23 -2 3 -7 -2 -11 -11z"/>
<path d="M4115 7759 c-6 -28 -1 -48 10 -37 3 2 8 19 11 36 8 42 -12 43 -21 1z"/>
<path d="M4075 7646 c-9 -20 -18 -51 -20 -69 l-5 -32 11 29 c7 18 14 24 19 16
4 -6 10 9 14 36 8 60 1 68 -19 20z"/>
<path d="M4031 7594 c0 -11 3 -14 6 -6 3 7 2 16 -1 19 -3 4 -6 -2 -5 -13z"/>
<path d="M8520 7502 c-159 -20 -508 -99 -493 -111 4 -4 35 -29 67 -56 33 -28
78 -64 99 -80 l39 -30 110 27 c60 15 170 37 245 48 75 11 137 21 137 22 1 2
-39 44 -88 93 -73 73 -96 90 -116 87z"/>
<path d="M547 7172 c-79 -132 -263 -502 -316 -637 -95 -242 -142 -398 -192
-643 -26 -123 -31 -176 -34 -322 l-4 -175 14 110 c70 578 211 1014 491 1518
41 74 109 235 102 243 -2 1 -29 -41 -61 -94z"/>
<path d="M228 7238 c-108 -191 -220 -429 -226 -478 -2 -25 -2 -43 0 -40 3 3
30 64 61 135 30 72 85 192 121 268 36 75 63 137 61 137 -2 0 -10 -10 -17 -22z"/>
<path d="M3910 7245 c0 -8 2 -15 4 -15 2 0 6 7 10 15 3 8 1 15 -4 15 -6 0 -10
-7 -10 -15z"/>
<path d="M8410 7143 c-36 -9 -66 -17 -68 -18 -2 -2 21 -25 50 -51 29 -27 84
-79 123 -115 63 -59 73 -65 100 -58 17 3 49 7 73 8 23 0 42 4 42 8 0 4 -21 28
-46 54 l-46 47 28 6 c24 5 264 26 295 26 5 0 -1 16 -12 35 -25 41 -16 40 -219
19 l-151 -15 -35 35 c-40 40 -42 40 -134 19z"/>
<path d="M9313 7073 c23 -43 33 -49 133 -66 75 -14 166 -38 319 -84 16 -5 13
3 -17 43 -28 38 -47 53 -86 66 -59 20 -222 54 -306 64 l-58 7 15 -30z"/>
<path d="M3896 7055 c-13 -13 -13 -20 -4 -35 9 -14 14 -16 20 -7 4 7 8 17 8
22 0 6 -5 3 -10 -5 -9 -13 -10 -13 -10 1 0 8 5 20 12 27 7 7 9 12 6 12 -4 0
-14 -7 -22 -15z"/>
<path d="M3850 6924 c0 -8 5 -12 10 -9 6 3 10 10 10 16 0 5 -4 9 -10 9 -5 0
-10 -7 -10 -16z"/>
<path d="M9470 6875 c0 -3 18 -30 39 -59 38 -52 43 -54 143 -87 214 -69 550
-258 753 -422 100 -81 275 -261 340 -350 l50 -67 3 40 c3 35 -3 48 -43 100
-149 193 -406 404 -687 561 -73 41 -102 63 -120 93 -17 29 -38 45 -87 67 -81
37 -213 84 -294 104 -34 9 -70 18 -79 21 -10 3 -18 3 -18 -1z"/>
<path d="M8673 6861 c-52 -9 -61 -17 -42 -36 12 -11 28 -12 97 -3 80 10 82 11
66 29 -18 20 -46 22 -121 10z"/>
<path d="M8795 6753 c-64 -4 -79 -11 -66 -31 5 -9 29 -11 94 -6 84 7 87 8 71
25 -10 11 -22 18 -28 17 -6 -1 -38 -3 -71 -5z"/>
<path d="M5614 6715 c-17 -13 -11 -14 66 -14 79 0 83 1 60 14 -33 19 -101 19
-126 0z"/>
<path d="M7935 6669 c-33 -10 -89 -24 -125 -29 -100 -16 -105 -18 -86 -39 14
-15 25 -17 67 -10 49 8 230 57 238 65 5 5 -19 34 -28 33 -3 0 -33 -9 -66 -20z"/>
<path d="M8808 6681 l-37 -6 25 -28 c23 -27 26 -28 93 -21 l68 6 -11 29 c-9
26 -14 29 -56 28 -25 -1 -62 -5 -82 -8z"/>
<path d="M5760 6660 c-14 -5 -38 -11 -53 -14 -15 -4 -25 -11 -22 -16 4 -6 -1
-13 -10 -16 -13 -5 -14 -9 -4 -15 10 -6 9 -10 -6 -15 -28 -11 -96 -84 -89 -96
3 -5 17 7 30 26 14 20 29 36 34 36 6 0 18 8 28 18 10 10 29 26 43 36 15 12 18
16 6 12 -10 -3 -15 -2 -12 3 6 10 51 9 61 -1 3 -3 24 -4 47 -2 l42 4 -49 -14
c-48 -13 -70 -32 -59 -50 3 -5 1 -6 -5 -2 -7 4 -12 3 -12 -2 0 -5 -6 -9 -12
-10 -7 0 -20 -2 -29 -4 -19 -4 -97 -68 -83 -68 6 0 23 13 39 30 16 16 31 28
33 25 3 -2 -14 -23 -37 -45 -23 -22 -39 -45 -36 -51 4 -5 11 -6 17 -3 13 8 2
-12 -20 -38 -16 -19 -37 -25 -27 -7 4 6 -2 5 -13 -2 -22 -14 -19 -34 4 -25 8
3 14 1 14 -5 0 -5 -7 -12 -15 -15 -8 -4 -12 -10 -9 -15 3 -5 -3 -9 -12 -9 -10
0 -14 -3 -11 -6 3 -4 1 -16 -5 -28 -7 -11 -12 -25 -13 -29 0 -4 -4 -11 -10
-15 -11 -8 -18 -27 -19 -54 0 -9 -3 -15 -7 -12 -4 2 -10 -3 -13 -12 -8 -22 -8
-26 4 -19 6 3 7 -1 4 -9 -3 -9 -14 -16 -23 -16 -14 0 -14 -2 -1 -10 13 -8 12
-10 -2 -10 -10 0 -18 -5 -18 -11 0 -5 5 -7 12 -3 8 5 9 2 5 -10 -4 -10 -7 -20
-7 -22 0 -2 -7 -4 -15 -4 -14 0 -17 -6 -14 -27 1 -5 5 -7 10 -6 4 2 6 -3 3
-11 -3 -8 -13 -16 -23 -19 -10 -2 -18 -11 -18 -20 0 -9 4 -14 9 -11 14 9 9 -9
-12 -44 -11 -18 -17 -38 -14 -44 4 -6 3 -8 -3 -5 -6 4 -15 -5 -22 -19 -6 -15
-7 -23 -1 -19 15 9 12 -27 -4 -47 -7 -10 -16 -14 -21 -10 -4 4 -4 -3 -1 -15 8
-25 -15 -68 -29 -55 -5 4 -5 1 -1 -6 6 -9 -8 -29 -40 -60 -61 -58 -185 -114
-336 -150 -105 -25 -107 -26 -90 -46 16 -18 16 -19 -5 -14 -13 4 -23 3 -23 -2
0 -4 -11 -10 -25 -12 -13 -3 -22 -1 -19 3 3 5 0 9 -5 9 -6 0 -11 -4 -11 -10 0
-5 -25 -10 -55 -10 -30 0 -55 5 -55 10 0 6 19 10 42 10 23 0 39 2 37 4 -4 4
-103 14 -152 15 -11 1 -17 7 -15 19 2 10 -2 16 -10 14 -8 -1 -11 2 -8 7 4 5 0
11 -6 13 -8 3 -5 9 9 16 19 10 20 16 12 44 -5 18 -6 41 -3 52 4 12 2 16 -5 12
-6 -4 -11 -3 -11 2 0 12 29 24 41 16 5 -3 9 0 9 5 0 6 -9 11 -19 11 -11 0 -23
5 -26 11 -4 5 -18 15 -32 20 -30 11 -27 18 10 21 14 1 23 6 20 11 -3 4 -7 6
-10 3 -3 -3 -19 4 -35 15 -16 12 -38 19 -49 16 -10 -3 -17 -2 -14 3 7 11 -22
21 -42 13 -11 -5 -14 -3 -8 6 6 10 0 12 -26 6 -22 -4 -29 -3 -21 3 17 11 -40
22 -113 21 l-50 0 30 -14 c26 -11 27 -13 8 -14 -12 -1 -29 -4 -39 -8 -10 -3
-15 -2 -12 3 3 5 -14 10 -38 10 -24 1 -44 -2 -44 -7 0 -5 7 -6 15 -3 11 5 13
2 8 -12 -5 -13 -3 -15 7 -9 9 6 11 4 6 -4 -5 -7 -14 -10 -22 -7 -8 3 -13 2
-11 -3 1 -4 -25 -29 -58 -56 -77 -62 -202 -192 -202 -210 0 -8 5 -12 11 -9 6
3 4 0 -5 -8 -14 -12 -11 -23 24 -115 l39 -101 68 102 c122 182 270 296 383
296 58 0 90 -27 101 -84 10 -52 -10 -80 -70 -95 -72 -18 -114 -44 -170 -102
-61 -65 -114 -146 -166 -256 l-40 -81 48 -84 c136 -238 261 -431 273 -423 5 2
21 35 37 72 23 57 28 83 28 158 l1 91 -73 144 c-80 157 -84 181 -37 219 20 15
51 19 217 24 300 10 442 43 808 187 30 12 77 27 104 34 l49 13 72 209 c183
535 314 799 407 819 28 6 36 3 60 -24 46 -52 40 -93 -41 -262 -203 -424 -378
-952 -511 -1539 -46 -205 -51 -270 -20 -270 11 0 27 8 36 19 9 10 85 139 168
287 261 461 369 620 550 800 139 139 179 166 246 167 65 1 96 -22 135 -98 l30
-60 -1 -175 c0 -96 -4 -264 -9 -372 -9 -213 -6 -228 41 -228 17 0 59 33 142
113 357 342 381 360 487 361 42 0 68 -5 87 -18 36 -23 90 -113 121 -198 30
-83 86 -161 133 -183 50 -23 115 -16 197 23 98 46 163 93 372 272 281 241 321
279 367 345 176 252 327 374 527 426 124 33 207 16 268 -55 44 -49 56 -95 51
-185 -7 -101 -47 -203 -133 -332 -163 -245 -454 -463 -689 -516 -101 -23 -117
-42 -123 -145 -3 -47 1 -91 11 -126 8 -29 21 -75 29 -102 25 -91 73 -122 187
-124 129 -2 319 75 548 221 194 124 250 173 779 674 131 124 248 231 260 237
34 19 68 14 96 -12 34 -31 43 -68 26 -109 -7 -18 -108 -127 -233 -252 -700
-700 -1236 -1022 -1581 -952 -149 31 -220 102 -282 283 -37 107 -38 112 -37
249 1 106 6 159 22 220 11 44 19 81 18 82 -1 1 -44 -34 -96 -79 -109 -93 -201
-156 -314 -213 -72 -36 -85 -40 -174 -43 -126 -5 -188 16 -273 96 -48 44 -70
75 -106 150 -25 52 -56 105 -70 118 l-24 23 -37 -22 c-20 -11 -134 -116 -252
-232 -118 -117 -236 -224 -262 -239 -32 -18 -68 -30 -107 -33 -56 -5 -60 -4
-98 30 -30 27 -44 52 -59 99 -17 57 -19 92 -17 347 1 157 7 307 13 333 12 57
2 84 -36 98 -33 13 -66 -4 -89 -43 -10 -18 -48 -70 -85 -117 -120 -152 -213
-300 -383 -606 -181 -328 -348 -618 -374 -652 -14 -18 -43 -47 -66 -63 -69
-50 -164 -33 -193 36 -33 79 0 425 71 760 27 126 107 430 141 537 5 18 -39 5
-245 -72 -136 -50 -246 -79 -400 -105 -86 -15 -151 -30 -159 -39 -14 -13 -14
-26 1 -109 9 -51 17 -114 17 -140 0 -114 -61 -298 -126 -384 l-25 -34 52 -62
c29 -34 58 -68 64 -75 9 -10 15 -8 31 9 17 20 17 22 2 16 -10 -4 -18 -3 -18 2
0 10 40 47 47 43 3 -2 8 0 11 4 4 4 1 4 -5 0 -24 -13 -13 13 11 30 14 8 23 21
20 28 -2 6 4 21 15 33 11 11 17 23 15 26 -3 3 1 18 9 34 24 46 37 102 23 97
-7 -3 -13 2 -13 11 0 9 6 14 13 11 8 -3 11 0 7 10 -3 9 2 14 16 14 12 0 21 5
21 10 0 6 -9 10 -20 10 -11 0 -20 3 -20 8 0 12 20 38 20 27 1 -5 10 8 21 30
17 35 18 41 4 51 -8 6 -15 17 -15 25 0 11 -2 11 -11 -1 -7 -10 -9 -11 -7 -2 2
8 8 14 13 14 16 0 36 20 32 32 -6 16 21 66 36 66 22 1 59 39 53 55 -3 9 0 15
10 15 9 0 12 5 8 12 -4 6 -3 8 4 4 6 -3 13 -2 16 3 3 5 15 7 26 4 11 -3 18 -9
15 -13 -3 -4 19 -16 48 -26 44 -16 54 -24 62 -51 11 -38 25 -43 26 -10 1 13 4
7 10 -16 6 -24 5 -45 -1 -55 -8 -14 -10 -13 -10 8 -1 23 -2 23 -10 5 -5 -11
-9 -39 -9 -62 -1 -24 -6 -43 -11 -43 -6 0 -8 -11 -4 -25 5 -19 2 -25 -10 -25
-15 0 -15 -3 -1 -36 19 -47 19 -61 -3 -66 -10 -3 -18 -15 -19 -27 -1 -13 2
-19 9 -15 6 4 9 1 6 -7 -3 -8 -10 -13 -16 -12 -5 1 -13 -24 -17 -57 -4 -33
-10 -58 -14 -56 -4 3 -6 -22 -5 -55 2 -32 -1 -59 -5 -59 -5 0 -11 -7 -14 -14
-4 -10 -1 -13 9 -9 16 6 19 -23 4 -47 -8 -13 -10 -12 -10 4 0 11 -2 17 -6 14
-3 -3 3 -38 12 -78 14 -58 15 -73 5 -80 -8 -4 -10 -13 -7 -19 4 -6 11 -9 16
-6 4 3 14 -3 21 -12 8 -9 9 -14 4 -11 -6 4 -16 3 -23 -1 -17 -10 18 -51 44
-52 18 0 18 -1 -1 -8 -11 -5 -23 -7 -27 -4 -5 2 -8 -1 -8 -6 0 -6 9 -11 19
-11 10 0 22 -7 25 -16 9 -24 7 -28 -9 -14 -27 22 -16 2 24 -44 21 -25 41 -50
43 -56 5 -17 84 -40 178 -53 72 -10 80 -13 50 -18 l-35 -6 35 -2 c42 -1 135
23 156 40 22 18 9 22 -23 6 -41 -21 -93 -31 -93 -18 0 6 7 11 15 11 9 0 44 12
78 26 34 15 73 30 86 35 18 7 21 12 12 23 -9 11 -9 16 0 22 8 5 10 3 4 -7 -4
-8 7 2 24 21 18 19 36 43 42 52 8 14 6 16 -8 11 -16 -6 -16 -5 -4 10 7 9 16
15 20 13 6 -4 10 10 13 51 1 7 4 10 7 8 4 -2 15 4 26 12 14 11 16 17 7 20 -8
3 -4 12 13 25 14 11 24 23 21 25 -9 9 14 44 25 38 5 -4 8 -3 7 2 -3 9 25 54
59 96 13 16 23 34 23 40 0 7 -4 6 -10 -3 -5 -8 -11 -12 -14 -9 -8 8 24 50 34
44 4 -3 13 2 20 10 8 9 8 15 2 15 -6 0 -13 -6 -15 -12 -4 -9 -6 -8 -6 2 -1 8
8 29 19 45 11 17 30 49 41 73 11 23 25 40 30 37 5 -4 7 0 4 7 -2 7 7 31 20 53
41 67 47 86 33 103 -11 13 -10 15 4 10 21 -8 51 24 42 45 -3 10 -9 15 -13 12
-4 -2 -8 2 -8 10 0 8 3 13 5 10 3 -3 11 4 19 15 8 11 20 20 27 20 14 0 46 31
46 45 0 5 -10 0 -23 -11 -13 -10 -8 -4 10 14 19 19 43 32 58 32 29 0 33 -15 8
-29 -16 -8 -15 -10 8 -16 20 -5 25 -13 27 -41 2 -23 -1 -33 -8 -29 -14 9 -13
4 11 -59 11 -31 18 -60 14 -66 -3 -5 -2 -10 4 -10 15 0 61 -98 55 -118 -5 -14
-4 -14 4 -3 9 12 13 12 26 2 19 -16 22 -46 4 -35 -8 4 -10 3 -5 -2 5 -5 13
-10 18 -10 5 -1 14 -2 20 -3 5 0 7 -6 3 -13 -5 -8 -2 -9 9 -5 10 3 17 2 17 -3
0 -5 10 -12 23 -16 12 -4 28 -15 35 -25 7 -11 21 -19 31 -19 10 0 21 -3 25 -7
11 -12 49 -14 76 -4 17 5 33 5 45 -1 12 -7 35 -7 74 3 31 7 59 12 64 11 4 -1
7 2 7 8 0 5 -5 10 -12 10 -18 0 24 29 42 30 17 0 131 69 117 70 -5 0 11 16 35
36 49 40 78 75 72 85 -6 10 63 68 93 80 40 15 96 10 131 -11 18 -11 30 -24 27
-29 -3 -5 0 -13 6 -17 8 -4 9 -3 5 4 -4 7 -5 12 -2 12 10 0 101 -72 102 -81 1
-5 2 -12 3 -16 0 -4 8 2 16 13 13 18 14 18 8 -6 -5 -24 -5 -24 10 -5 16 19 16
19 10 -5 -5 -24 -5 -25 11 -5 l16 20 -7 -20 c-3 -11 -11 -23 -17 -27 -5 -4 2
-10 17 -13 15 -4 27 -11 27 -16 0 -5 7 -6 15 -3 8 4 15 1 15 -6 0 -7 8 -9 20
-5 12 4 20 2 20 -5 0 -6 10 -8 25 -4 15 4 25 2 25 -5 0 -6 8 -11 18 -11 14 0
15 2 2 10 -11 7 1 10 41 10 109 0 179 11 179 29 0 14 2 14 10 1 5 -8 12 -11
16 -8 4 4 15 3 25 -3 15 -7 19 -6 19 6 0 10 10 15 34 15 19 0 42 7 50 16 9 8
16 12 16 7 0 -5 -5 -14 -12 -21 -9 -9 -9 -12 0 -12 7 0 15 7 18 15 4 8 10 15
14 15 12 0 44 -53 43 -72 -1 -10 3 -17 9 -15 5 1 14 -8 19 -21 6 -15 5 -21 -1
-17 -13 8 -13 2 2 -30 6 -14 14 -25 18 -25 5 0 7 -8 6 -17 0 -10 5 -17 11 -16
14 3 13 -18 0 -28 -14 -10 15 -48 31 -41 9 3 13 1 9 -5 -4 -6 1 -14 10 -17 13
-5 14 -9 5 -15 -17 -10 44 -85 102 -124 195 -134 432 -155 704 -61 213 74 469
226 711 423 29 24 50 37 46 30 -5 -8 13 8 38 35 26 26 47 44 47 40 0 -4 16 7
35 26 48 47 44 29 -6 -25 -23 -25 -39 -45 -36 -45 3 0 58 59 122 130 109 121
143 151 129 115 -4 -8 -10 -13 -14 -10 -4 3 -13 -2 -19 -9 -10 -11 -9 -14 4
-12 19 3 36 19 39 37 4 24 28 63 59 94 23 23 27 25 18 8 -6 -12 -19 -27 -29
-32 -9 -6 -11 -11 -4 -11 6 0 39 27 72 60 59 59 91 81 54 38 -10 -13 -2 -8 18
11 20 18 34 39 32 46 -3 6 2 18 11 25 18 15 20 0 3 -19 -11 -11 -10 -13 5 -8
28 10 20 -10 -20 -51 -21 -20 -49 -50 -63 -66 l-25 -29 27 17 c15 10 34 28 42
41 10 15 23 23 36 20 12 -2 20 2 20 9 0 8 7 20 16 27 15 12 16 11 10 -11 l-7
-25 20 24 c12 13 21 33 21 46 0 12 7 28 16 36 13 11 14 9 8 -17 -7 -26 -6 -28
9 -15 10 7 17 22 17 31 0 22 83 96 88 80 2 -6 -3 -19 -12 -29 -9 -10 -16 -27
-16 -37 0 -11 -13 -33 -30 -49 -17 -16 -30 -23 -30 -16 0 20 -26 -4 -33 -30
-5 -17 -3 -18 10 -7 15 12 16 9 9 -22 l-6 -35 64 64 c55 55 65 69 70 110 4 25
14 55 22 66 15 19 15 17 9 -22 -4 -24 -4 -43 -1 -43 3 0 17 19 30 43 22 38 26
55 25 130 0 48 -5 89 -10 92 -5 4 -9 21 -9 40 0 71 -45 224 -92 309 -11 21
-16 36 -9 32 23 -15 10 16 -21 48 -18 18 -41 43 -50 55 -10 11 -26 21 -37 21
-11 0 -27 3 -36 7 -16 6 -16 5 -1 -20 17 -25 17 -25 -4 -20 -11 3 -25 14 -31
24 -8 16 -21 19 -75 19 -62 0 -64 -1 -54 -20 8 -14 8 -20 0 -20 -6 0 -8 -4 -5
-10 3 -5 13 -10 21 -10 8 0 12 5 9 10 -4 6 6 10 24 10 16 0 33 -4 36 -10 3 -5
15 -10 26 -10 10 0 19 -4 19 -9 0 -20 -74 -29 -85 -11 -9 15 -27 1 -21 -16 8
-20 -21 -17 -33 4 -9 15 -10 14 -11 -7 0 -20 -4 -22 -25 -17 -19 5 -25 2 -25
-10 0 -10 -6 -14 -14 -11 -8 3 -20 -1 -26 -9 -10 -11 -9 -14 8 -14 12 0 23 4
27 10 3 5 12 7 19 4 8 -3 17 -1 21 5 10 17 35 13 35 -4 0 -9 -6 -15 -12 -14
-7 1 -22 -2 -32 -6 -19 -8 -19 -9 0 -16 16 -6 16 -8 2 -8 -9 -1 -19 3 -22 8
-7 11 -46 3 -46 -9 0 -5 10 -6 23 -3 15 3 12 -1 -10 -13 -28 -14 -35 -14 -50
-3 -15 12 -16 12 -11 -2 4 -9 1 -22 -5 -29 -9 -10 -9 -11 2 -5 9 5 12 3 9 -6
-3 -8 -13 -16 -23 -17 -10 -3 -15 0 -11 7 4 6 4 11 1 11 -9 0 -31 -23 -33 -35
-3 -12 -48 -25 -58 -16 -4 3 -4 0 0 -7 5 -8 -22 -41 -76 -94 -46 -44 -76 -77
-68 -72 13 7 13 6 0 -10 -8 -11 -16 -14 -18 -7 -2 6 -17 -3 -34 -19 -16 -17
-34 -30 -39 -30 -5 0 -28 -19 -50 -42 -23 -24 -45 -44 -50 -44 -22 -3 -23 -5
-10 -13 11 -7 8 -13 -13 -26 -32 -21 -35 -40 -3 -24 16 8 19 8 11 0 -6 -6 -21
-13 -33 -16 -28 -5 -51 -23 -51 -40 0 -30 -173 -181 -193 -168 -6 3 -8 2 -4
-3 8 -13 -160 -137 -175 -128 -7 5 -8 3 -3 -6 6 -10 4 -12 -8 -7 -9 3 -19 1
-23 -5 -5 -7 -2 -8 6 -3 9 6 11 4 6 -4 -5 -7 -14 -10 -22 -7 -7 3 -16 0 -20
-6 -5 -7 -2 -8 6 -3 9 6 11 4 6 -4 -5 -7 -15 -10 -24 -6 -9 3 -13 3 -9 -1 19
-19 -205 -116 -266 -116 -42 1 -67 16 -67 41 0 14 2 14 10 1 8 -13 10 -13 11
3 1 9 2 22 3 28 0 7 8 16 16 20 8 5 60 34 115 64 104 59 157 101 310 251 90
88 192 215 217 268 6 14 19 26 29 26 12 0 27 19 45 59 15 33 30 58 34 56 3 -2
7 13 8 33 2 20 9 43 17 52 35 38 46 207 20 294 -8 26 -13 52 -10 56 3 5 1 10
-5 12 -6 2 -12 14 -15 27 -2 13 -12 32 -21 42 -10 11 -14 19 -9 19 4 0 -5 17
-21 37 -15 20 -21 33 -14 28 8 -5 4 5 -7 21 -31 43 -223 135 -199 95 4 -6 1
-11 -8 -11 -8 0 -23 -3 -33 -6 -15 -5 -16 -4 -3 6 12 9 4 10 -35 4 -27 -4 -70
-8 -95 -10 -76 -6 -103 -10 -145 -24 -52 -17 -195 -87 -216 -106 -8 -8 -19
-14 -23 -14 -8 0 -76 -48 -91 -65 -24 -26 -108 -99 -101 -87 4 6 2 12 -3 12
-14 0 -14 -17 -1 -25 14 -9 -7 -35 -26 -35 -8 0 -15 -4 -15 -10 -1 -5 -2 -14
-3 -18 0 -5 -26 -37 -56 -72 -30 -35 -48 -60 -41 -55 26 15 -26 -48 -81 -100
-82 -77 -122 -111 -113 -96 4 7 -6 3 -24 -10 -31 -23 -42 -37 -18 -23 6 4 3
-2 -7 -14 -20 -23 -32 -30 -21 -12 3 6 1 10 -6 10 -8 0 -7 5 2 18 13 15 12 16
-4 3 -9 -8 -15 -16 -12 -19 3 -3 -7 -19 -22 -35 l-28 -30 28 18 c48 31 29 9
-55 -63 -94 -79 -185 -142 -207 -142 -11 0 -10 3 4 14 16 11 11 12 -36 2 -30
-5 -56 -14 -59 -18 -3 -4 -18 -1 -33 7 -15 8 -25 10 -22 5 4 -6 4 -10 0 -10
-3 0 -9 8 -13 19 -16 41 -157 197 -212 234 l-25 16 33 -10 c17 -6 32 -15 32
-21 0 -5 5 -6 11 -2 13 8 -8 22 -61 41 -27 9 -36 9 -42 0 -7 -11 -12 -3 -9 16
0 4 -6 7 -15 7 -9 0 -12 -5 -8 -11 4 -7 1 -10 -7 -7 -8 3 -13 11 -11 17 1 6
-11 11 -30 10 -28 0 -30 -2 -13 -9 13 -6 -6 -9 -60 -9 -76 0 -78 1 -50 14 20
9 24 14 12 14 -9 1 -25 -3 -35 -8 -27 -13 -87 -31 -106 -31 -11 0 -15 -4 -10
-12 5 -8 0 -7 -11 2 -10 8 -16 10 -12 4 6 -10 -12 -30 -49 -53 -17 -11 -16
-11 6 -5 l25 6 -25 -19 c-107 -83 -175 -39 -175 114 0 40 -4 73 -9 73 -4 0 -5
11 -2 24 3 14 1 28 -4 31 -6 4 -8 16 -5 28 4 15 3 18 -3 9 -7 -11 -11 -7 -17
15 -5 15 -9 39 -9 53 -1 14 -6 24 -12 23 -6 -1 -10 9 -9 21 2 16 -8 35 -33 58
-39 37 -161 110 -147 89 6 -10 2 -11 -16 -6 -13 4 -28 11 -33 16 -6 5 -17 9
-25 9 -14 0 -14 -1 -1 -10 10 -7 -11 -10 -70 -10 -85 0 -183 -19 -203 -39 -7
-7 -7 -11 -1 -11 6 0 15 5 22 12 9 9 12 9 12 0 0 -7 -10 -17 -22 -22 -13 -5
-48 -27 -78 -49 -30 -23 -67 -46 -82 -52 -16 -6 -28 -15 -28 -21 0 -5 -10 -8
-22 -6 -20 3 -23 8 -21 43 3 63 24 149 41 165 8 8 12 10 8 3 -3 -6 -2 -14 4
-18 6 -4 10 6 11 22 0 15 2 37 5 48 2 11 6 31 7 45 2 14 9 24 16 22 7 -1 10 2
6 8 -3 5 -2 10 4 10 10 0 9 19 -2 37 -6 9 -3 11 7 7 18 -7 43 6 28 15 -13 9
-27 55 -14 47 6 -4 18 6 26 21 8 15 15 24 16 20 0 -5 -5 -17 -10 -28 -6 -11
-7 -19 -1 -19 5 0 15 23 22 50 7 28 17 50 22 50 5 0 6 7 3 16 -4 11 1 18 14
21 16 4 18 9 10 24 -14 25 -1 99 16 99 16 0 19 26 4 35 -5 3 -10 11 -10 16 0
6 5 7 10 4 6 -3 10 1 10 10 0 9 -4 13 -10 10 -6 -3 -7 1 -4 9 3 9 2 16 -4 16
-5 0 -12 7 -15 14 -4 10 -1 13 7 10 8 -3 17 -1 21 5 4 7 -5 11 -22 11 -22 0
-25 2 -13 10 11 7 11 10 2 10 -7 0 -10 5 -7 10 3 6 2 10 -3 10 -5 0 -24 16
-43 35 -19 19 -61 46 -92 60 -31 13 -57 28 -57 31 0 4 24 4 53 1 50 -6 51 -6
22 8 -23 11 -26 14 -10 15 11 0 41 -11 67 -25 51 -27 63 -30 53 -15 -8 12 -86
47 -134 59 -54 13 -202 21 -231 11z m213 -27 c-7 -2 -19 -2 -25 0 -7 3 -2 5
12 5 14 0 19 -2 13 -5z m-65 -30 c-10 -2 -26 -2 -35 0 -10 3 -2 5 17 5 19 0
27 -2 18 -5z m4470 -955 c8 -10 3 -14 -19 -15 -15 -1 -31 3 -35 9 -5 8 -2 9 9
5 10 -3 17 -2 17 3 0 14 16 12 28 -2z m-4288 -12 c0 -2 -8 -10 -17 -17 -16
-13 -17 -12 -4 4 13 16 21 21 21 13z m4310 -26 c8 -5 12 -11 9 -14 -3 -3 -14
1 -25 9 -21 16 -8 20 16 5z m-4350 -3 c0 -2 -10 -12 -22 -23 l-23 -19 19 23
c18 21 26 27 26 19z m-155 -107 c19 -8 19 -9 -2 -9 -12 -1 -25 4 -28 9 -7 12
2 12 30 0z m-2065 -24 c0 -2 -7 -7 -16 -10 -8 -3 -12 -2 -9 4 6 10 25 14 25 6z
m2037 -42 c-3 -3 -12 -4 -19 -1 -8 3 -5 6 6 6 11 1 17 -2 13 -5z m2298 -114
c-3 -5 -12 -10 -18 -10 -7 0 -6 4 3 10 19 12 23 12 15 0z m-1105 -4 c0 -2 -9
-6 -20 -9 -11 -3 -18 -1 -14 4 5 9 34 13 34 5z m1070 -20 c0 -2 -8 -10 -17
-17 -16 -13 -17 -12 -4 4 13 16 21 21 21 13z m-1155 -16 c-3 -5 -12 -10 -18
-10 -7 0 -6 4 3 10 19 12 23 12 15 0z m3565 -155 c-6 -15 -13 -26 -15 -23 -3
2 1 19 8 37 6 17 13 28 15 23 1 -5 -2 -22 -8 -37z m6 -62 c-5 -18 -10 -23 -15
-14 -6 10 -10 9 -15 -5 -3 -9 -9 -15 -12 -12 -8 8 18 58 27 52 5 -3 9 0 9 7 0
7 3 10 6 6 4 -3 3 -18 0 -34z m-1486 -197 c0 -2 -8 -10 -17 -17 -16 -13 -17
-12 -4 4 13 16 21 21 21 13z m1150 0 c0 -2 -8 -10 -17 -17 -16 -13 -17 -12 -4
4 13 16 21 21 21 13z m-4015 -235 c3 -5 2 -12 -3 -15 -5 -3 -9 1 -9 9 0 17 3
19 12 6z m-205 -26 c-7 -9 -15 -13 -18 -10 -3 2 1 11 8 20 7 9 15 13 18 10 3
-2 -1 -11 -8 -20z m-38 -52 c-6 -3 -9 -10 -6 -16 4 -7 1 -7 -7 1 -12 11 -12
14 1 22 8 5 17 6 20 3 3 -3 -1 -8 -8 -10z m292 -39 c3 -8 2 -12 -4 -9 -6 3
-10 10 -10 16 0 14 7 11 14 -7z m-324 -24 c0 -5 -5 -10 -11 -10 -5 0 -7 5 -4
10 3 6 8 10 11 10 2 0 4 -4 4 -10z m1505 -60 c3 -5 -1 -10 -10 -10 -9 0 -13 5
-10 10 3 6 8 10 10 10 2 0 7 -4 10 -10z m-795 -144 c0 -2 -7 -7 -16 -10 -8 -3
-12 -2 -9 4 6 10 25 14 25 6z m-1590 -496 c0 -5 -2 -10 -4 -10 -3 0 -8 5 -11
10 -3 6 -1 10 4 10 6 0 11 -4 11 -10z"/>
<path d="M5715 6580 c3 -6 1 -10 -6 -10 -7 0 -10 -3 -6 -6 3 -3 13 -2 22 4 16
8 16 9 1 15 -10 4 -15 3 -11 -3z"/>
<path d="M6150 6526 c0 -2 8 -10 18 -17 15 -13 16 -12 3 4 -13 16 -21 21 -21
13z"/>
<path d="M6181 6475 c1 -19 18 -51 18 -35 0 8 -4 22 -9 30 -5 8 -9 11 -9 5z"/>
<path d="M8940 6461 c0 -16 14 -19 102 -23 60 -3 75 -1 65 8 -17 17 -167 30
-167 15z"/>
<path d="M6196 6396 c1 -11 3 -29 3 -38 1 -10 6 -18 12 -18 7 0 9 12 4 36 -5
28 -3 34 7 28 7 -4 9 -3 5 1 -16 18 -33 13 -31 -9z"/>
<path d="M3858 6353 c7 -3 16 -2 19 1 4 3 -2 6 -13 5 -11 0 -14 -3 -6 -6z"/>
<path d="M6160 6254 c0 -14 4 -23 10 -19 6 3 10 15 10 26 0 10 -4 19 -10 19
-5 0 -10 -12 -10 -26z"/>
<path d="M6190 6243 c0 -5 5 -15 10 -23 7 -12 9 -10 7 8 -1 19 -17 33 -17 15z"/>
<path d="M9248 6193 c6 -2 18 -2 25 0 6 3 1 5 -13 5 -14 0 -19 -2 -12 -5z"/>
<path d="M6185 6170 c3 -5 8 -10 11 -10 2 0 4 5 4 10 0 6 -5 10 -11 10 -5 0
-7 -4 -4 -10z"/>
<path d="M9108 6103 c7 -3 16 -2 19 1 4 3 -2 6 -13 5 -11 0 -14 -3 -6 -6z"/>
<path d="M9176 6102 c-3 -5 20 -15 52 -21 31 -7 77 -22 101 -32 47 -21 78 -25
46 -7 -11 6 -22 14 -25 18 -5 7 -78 29 -142 44 -15 3 -29 2 -32 -2z"/>
<path d="M8898 6073 c7 -3 16 -2 19 1 4 3 -2 6 -13 5 -11 0 -14 -3 -6 -6z"/>
<path d="M9411 5997 c2 -1 15 -11 29 -22 l25 -20 -19 23 c-11 12 -24 22 -29
22 -6 0 -8 -1 -6 -3z"/>
<path d="M9490 5911 c0 -6 4 -13 10 -16 6 -3 7 1 4 9 -7 18 -14 21 -14 7z"/>
<path d="M9467 5859 c7 -7 15 -10 18 -7 3 3 -2 9 -12 12 -14 6 -15 5 -6 -5z"/>
<path d="M4070 5830 c0 -5 5 -10 10 -10 6 0 10 5 10 10 0 6 -4 10 -10 10 -5 0
-10 -4 -10 -10z"/>
<path d="M4123 5803 c9 -2 25 -2 35 0 9 3 1 5 -18 5 -19 0 -27 -2 -17 -5z"/>
<path d="M5967 5755 c-4 -8 -3 -16 1 -19 4 -3 9 4 9 15 2 23 -3 25 -10 4z"/>
<path d="M6050 5720 c-9 -6 -10 -10 -3 -10 6 0 15 5 18 10 8 12 4 12 -15 0z"/>
<path d="M6100 5720 c-8 -5 -11 -12 -7 -16 4 -4 13 -2 19 4 15 15 7 24 -12 12z"/>
<path d="M4004 5706 c-34 -15 -53 -36 -32 -36 7 0 27 11 43 25 34 28 32 30
-11 11z"/>
<path d="M6690 5651 c0 -6 4 -13 10 -16 6 -3 7 1 4 9 -7 18 -14 21 -14 7z"/>
<path d="M9023 5641 c-108 -37 -213 -122 -312 -253 -115 -152 -211 -322 -211
-375 0 -41 41 -40 112 3 232 139 447 348 499 483 23 62 25 124 3 145 -19 20
-27 20 -91 -3z"/>
<path d="M46 5463 c-23 -227 -39 -550 -34 -708 3 -95 11 -156 29 -225 l24 -95
8 130 c5 72 5 249 0 395 -4 146 -7 356 -6 468 0 111 0 202 -1 202 -1 0 -10
-75 -20 -167z"/>
<path d="M5206 5615 c-16 -12 -17 -15 -4 -15 8 0 21 7 28 15 16 19 1 19 -24 0z"/>
<path d="M10596 5581 c9 -19 25 -58 35 -85 9 -28 18 -46 18 -39 1 19 -37 117
-54 139 -13 15 -13 12 1 -15z"/>
<path d="M6705 5569 c6 -30 15 -37 15 -11 0 11 -4 23 -9 27 -6 3 -8 -4 -6 -16z"/>
<path d="M4534 5567 c3 -10 6 -23 6 -28 0 -5 5 -9 10 -9 14 0 12 13 -6 36 -14
17 -15 17 -10 1z"/>
<path d="M8299 5553 c-13 -16 -12 -17 4 -4 9 7 17 15 17 17 0 8 -8 3 -21 -13z"/>
<path d="M8255 5478 c-16 -16 -36 -39 -44 -51 -8 -12 9 0 38 28 28 27 51 51
51 52 0 9 -19 -3 -45 -29z"/>
<path d="M4526 5492 c-3 -5 8 -22 24 -37 36 -35 38 -30 6 14 -13 18 -27 28
-30 23z"/>
<path d="M6751 5384 c0 -11 3 -14 6 -6 3 7 2 16 -1 19 -3 4 -6 -2 -5 -13z"/>
<path d="M9809 5343 c-13 -16 -12 -17 4 -4 16 13 21 21 13 21 -2 0 -10 -8 -17
-17z"/>
<path d="M6770 5275 c16 -41 29 -55 54 -55 20 0 19 1 -4 13 -13 7 -30 23 -36
35 -17 35 -26 40 -14 7z"/>
<path d="M7944 5228 l-19 -23 23 19 c21 18 27 26 19 26 -2 0 -12 -10 -23 -22z"/>
<path d="M7889 5183 c-13 -16 -12 -17 4 -4 9 7 17 15 17 17 0 8 -8 3 -21 -13z"/>
<path d="M9358 5165 c-17 -22 -17 -24 0 -37 15 -12 16 -11 3 5 -7 9 -9 17 -3
17 5 0 13 7 16 16 10 25 3 25 -16 -1z"/>
<path d="M7839 5143 c-13 -16 -12 -17 4 -4 9 7 17 15 17 17 0 8 -8 3 -21 -13z"/>
<path d="M7688 5073 c6 -2 18 -2 25 0 6 3 1 5 -13 5 -14 0 -19 -2 -12 -5z"/>
<path d="M9383 4948 c-12 -21 -14 -50 -2 -46 6 2 10 7 9 11 0 5 7 16 17 25 10
9 14 14 9 10 -14 -11 -28 -10 -21 2 3 6 4 10 1 10 -3 0 -8 -6 -13 -12z"/>
<path d="M4878 4873 c7 -3 16 -2 19 1 4 3 -2 6 -13 5 -11 0 -14 -3 -6 -6z"/>
<path d="M10318 4793 c-14 -16 -28 -37 -32 -48 -6 -16 -1 -14 22 9 17 15 32
37 35 47 7 25 6 24 -25 -8z"/>
<path d="M4766 4768 c3 -5 10 -6 15 -3 13 9 11 12 -6 12 -8 0 -12 -4 -9 -9z"/>
<path d="M10114 4718 l-19 -23 23 19 c12 11 22 21 22 23 0 8 -8 2 -26 -19z"/>
<path d="M6118 4723 c6 -2 10 -9 7 -13 -3 -5 4 -14 15 -20 21 -11 21 -11 5 14
-10 14 -22 26 -29 25 -7 0 -6 -2 2 -6z"/>
<path d="M10099 4673 c-13 -16 -12 -17 4 -4 16 13 21 21 13 21 -2 0 -10 -8
-17 -17z"/>
<path d="M5000 4671 c0 -6 4 -13 10 -16 6 -3 7 1 4 9 -7 18 -14 21 -14 7z"/>
<path d="M6063 4663 c-10 -10 -14 -15 -8 -11 6 4 22 12 36 17 15 6 18 10 8 10
-9 1 -25 -7 -36 -16z"/>
<path d="M7161 4586 c2 -2 15 -9 29 -15 24 -11 24 -11 6 3 -16 13 -49 24 -35
12z"/>
<path d="M9984 4564 c-18 -14 -18 -15 4 -4 12 6 22 13 22 15 0 8 -5 6 -26 -11z"/>
<path d="M7000 4539 c-22 -18 -22 -19 -3 -10 12 6 25 16 28 21 9 15 3 12 -25
-11z"/>
<path d="M7250 4517 c16 -14 70 -39 70 -33 0 5 -69 46 -78 46 -3 0 0 -6 8 -13z"/>
<path d="M7976 4421 c-6 -10 32 -57 39 -49 2 2 -4 16 -14 32 -11 16 -21 24
-25 17z"/>
<path d="M7758 4373 c7 -3 16 -2 19 1 4 3 -2 6 -13 5 -11 0 -14 -3 -6 -6z"/>
<path d="M9669 4343 c-13 -16 -12 -17 4 -4 16 13 21 21 13 21 -2 0 -10 -8 -17
-17z"/>
<path d="M6770 4321 c0 -6 4 -13 10 -16 6 -3 7 1 4 9 -7 18 -14 21 -14 7z"/>
<path d="M9629 4313 c-13 -16 -12 -17 4 -4 9 7 17 15 17 17 0 8 -8 3 -21 -13z"/>
<path d="M6365 4300 c-3 -5 1 -10 10 -10 9 0 13 5 10 10 -3 6 -8 10 -10 10 -2
0 -7 -4 -10 -10z"/>
<path d="M6525 4250 c-17 -7 -15 -9 12 -9 17 -1 35 4 38 9 7 12 -22 12 -50 0z"/>
<path d="M10738 4128 c-157 -236 -438 -508 -703 -679 -157 -102 -269 -161
-431 -228 -105 -44 -114 -50 -168 -114 -32 -37 -55 -67 -53 -67 29 0 277 98
402 159 148 73 162 82 189 125 22 34 61 68 152 132 261 182 495 410 643 627
26 38 32 55 29 89 l-3 41 -57 -85z"/>
<path d="M9455 4164 l-30 -26 33 22 c17 12 32 23 32 26 0 7 -4 5 -35 -22z"/>
<path d="M295 4085 c35 -253 111 -472 217 -625 25 -36 47 -82 51 -104 3 -21
15 -49 26 -60 12 -12 24 -36 27 -54 6 -31 20 -49 30 -39 2 2 0 17 -6 32 -9 24
-9 26 4 16 8 -7 18 -25 21 -41 3 -16 13 -35 22 -42 15 -12 15 -11 3 12 -12 24
-11 24 5 8 10 -9 19 -25 20 -35 2 -27 14 -43 28 -37 7 2 23 -10 36 -28 l24
-33 -31 29 c-34 32 -44 26 -14 -7 22 -26 10 -19 -90 51 -43 29 -78 49 -78 43
0 -5 5 -13 10 -16 6 -3 10 -15 10 -25 0 -12 17 -30 43 -47 23 -15 63 -46 88
-68 25 -22 66 -47 91 -57 l46 -16 -84 172 c-46 94 -102 217 -124 271 l-40 100
6 -59 c5 -43 4 -57 -5 -52 -6 4 -11 33 -11 67 0 47 -5 68 -24 96 l-25 36 -3
-64 -3 -64 -48 77 c-63 100 -119 239 -152 374 -32 135 -56 216 -68 229 -6 6
-7 -10 -2 -40z"/>
<path d="M9364 4104 c-18 -14 -18 -15 4 -4 12 6 22 13 22 15 0 8 -5 6 -26 -11z"/>
<path d="M9284 4054 c-18 -14 -18 -15 4 -4 12 6 22 13 22 15 0 8 -5 6 -26 -11z"/>
<path d="M9258 3990 c-20 -11 -39 -24 -43 -29 -3 -6 15 2 40 15 25 14 45 28
45 30 0 6 -1 5 -42 -16z"/>
<path d="M8375 3850 c11 -5 31 -9 45 -9 23 0 23 1 5 9 -11 5 -31 9 -45 9 -23
0 -23 -1 -5 -9z"/>
<path d="M5572 3760 c-12 -20 -12 -21 13 -4 28 18 31 24 12 24 -7 0 -18 -9
-25 -20z"/>
<path d="M4960 3736 c0 -2 12 -12 28 -21 l27 -18 -19 21 c-17 20 -36 29 -36
18z"/>
<path d="M5512 3709 c-24 -11 -41 -23 -38 -26 6 -7 73 24 81 37 8 13 8 13 -43
-11z"/>
<path d="M5010 3685 c0 -8 71 -35 89 -34 9 0 2 6 -16 12 -17 7 -35 15 -39 20
-8 8 -34 10 -34 2z"/>
<path d="M5108 3674 c13 -9 26 -13 30 -9 8 8 -17 25 -38 25 -9 0 -6 -6 8 -16z"/>
<path d="M5156 3662 c-2 -4 10 -9 27 -9 26 -2 28 0 12 7 -26 11 -33 12 -39 2z"/>
<path d="M5328 3623 c6 -2 18 -2 25 0 6 3 1 5 -13 5 -14 0 -19 -2 -12 -5z"/>
<path d="M5223 3613 c15 -2 39 -2 55 0 15 2 2 4 -28 4 -30 0 -43 -2 -27 -4z"/>
<path d="M8861 3429 c-86 -10 -120 -29 -50 -28 69 1 148 14 161 27 14 14 3 14
-111 1z"/>
<path d="M10766 3368 c-31 -57 -84 -103 -274 -238 -94 -67 -107 -80 -140 -143
-20 -37 -69 -125 -108 -195 -39 -70 -70 -129 -68 -131 2 -2 46 20 98 48 53 28
96 49 96 46 0 -6 -78 -110 -169 -225 -42 -52 -83 -104 -91 -114 -94 -119 -290
-323 -752 -787 -140 -140 -345 -322 -496 -438 -45 -35 -81 -65 -79 -67 6 -7
205 104 347 194 612 383 1086 863 1558 1576 l112 169 -2 179 -3 179 -29 -53z"/>
<path d="M0 3170 c0 -154 -3 -145 111 -286 104 -128 224 -225 390 -315 172
-94 173 -92 42 47 -65 70 -172 181 -238 248 -127 127 -208 237 -269 366 l-36
74 0 -134z"/>
<path d="M7277 3242 l-28 -19 63 -7 c35 -3 115 -17 178 -30 78 -16 121 -21
133 -15 17 10 24 29 9 29 -4 0 -61 11 -127 24 -188 38 -196 39 -228 18z"/>
<path d="M8570 3210 l-34 -30 99 0 c105 0 108 1 139 38 l19 22 -94 0 c-89 -1
-96 -2 -129 -30z"/>
<path d="M8485 3137 c-16 -12 -12 -15 36 -20 100 -12 144 -9 164 13 18 20 17
20 -82 20 -67 0 -105 -4 -118 -13z"/>
<path d="M9705 3029 c-105 -45 -248 -93 -367 -124 -97 -25 -110 -31 -150 -72
l-43 -45 40 7 c85 15 285 67 388 102 107 36 108 37 158 100 27 35 48 63 47 62
-2 0 -34 -14 -73 -30z"/>
<path d="M8353 3032 l-22 -19 52 -7 c103 -12 162 -8 182 14 18 20 17 20 -36
20 -30 0 -76 3 -104 5 -40 5 -54 2 -72 -13z"/>
<path d="M670 3012 c0 -26 115 -91 185 -106 17 -3 -6 13 -55 39 -47 25 -95 52
-107 61 -13 9 -23 12 -23 6z"/>
<path d="M8130 2869 c-80 -54 -146 -103 -148 -108 -1 -4 38 -16 87 -26 l90
-17 55 36 55 36 71 -11 c39 -6 131 -14 205 -17 l135 -7 40 30 c21 17 39 33 40
36 0 3 -80 9 -177 13 -98 3 -190 9 -205 12 -28 6 -27 7 32 53 70 53 69 54 -60
64 l-75 6 -145 -100z"/>
<path d="M6905 2813 c-76 -9 -235 -47 -228 -53 19 -17 394 -108 513 -124 42
-6 52 -3 158 60 83 50 109 70 99 76 -9 4 -68 17 -132 28 -109 19 -315 25 -410
13z"/>
<path d="M7743 2627 l-73 -44 53 -7 c70 -8 411 -6 467 3 l45 7 -55 7 c-30 5
-116 22 -190 38 -74 17 -144 33 -155 35 -12 3 -49 -13 -92 -39z"/>
<path d="M307 2485 c35 -49 185 -190 225 -213 21 -12 68 -30 104 -42 37 -11
72 -24 78 -29 6 -5 29 -14 51 -21 22 -7 45 -15 50 -19 6 -3 44 -17 85 -32 71
-25 152 -55 302 -113 38 -14 68 -24 68 -22 0 2 -33 25 -72 51 -40 26 -104 72
-143 101 -44 33 -101 64 -155 85 -47 17 -107 40 -135 51 -27 11 -81 32 -120
47 -74 28 -266 125 -325 163 l-35 23 22 -30z"/>
<path d="M0 1991 l0 -249 68 -58 c37 -32 69 -61 72 -64 3 -3 39 -34 80 -68 41
-35 82 -69 90 -76 35 -30 195 -149 296 -219 257 -177 526 -323 779 -422 328
-129 977 -318 1340 -390 257 -51 911 -132 1215 -150 58 -3 123 -8 145 -11 22
-2 -21 15 -95 39 -74 24 -184 63 -245 87 -98 38 -131 45 -300 66 -633 79 -874
130 -1455 310 -651 202 -976 359 -1415 683 -140 104 -245 190 -370 304 l-40
37 60 -21 c33 -11 112 -33 175 -50 63 -17 135 -38 160 -48 25 -10 63 -22 85
-25 22 -4 54 -13 70 -20 17 -8 57 -24 90 -36 124 -45 118 -42 415 -173 376
-165 536 -222 735 -262 146 -29 319 -48 400 -43 l60 3 -65 49 c-36 28 -117 94
-182 147 -110 93 -120 99 -197 119 -116 29 -433 143 -596 214 -16 7 -46 19
-65 26 -19 7 -62 24 -95 38 -33 13 -69 28 -80 32 -11 5 -65 25 -120 45 -55 20
-108 41 -117 46 -10 5 -23 9 -29 9 -6 0 -25 6 -42 14 -18 8 -50 20 -72 26 -22
7 -44 16 -50 20 -5 4 -35 13 -65 20 -30 7 -66 19 -80 26 -14 8 -72 30 -130 50
-111 38 -277 120 -372 185 l-58 39 0 -249z"/>
<path d="M10654 1507 c-552 -559 -1099 -898 -1918 -1188 -290 -103 -573 -176
-1101 -283 l-170 -35 440 2 440 2 170 48 c282 79 701 227 900 317 495 224 853
456 1258 817 l127 114 0 175 c0 96 -1 174 -2 174 -2 -1 -66 -65 -144 -143z"/>
<path d="M0 696 l0 -125 143 -84 c343 -203 645 -347 945 -451 l104 -36 356 1
357 1 -120 29 c-636 154 -943 277 -1483 595 -51 30 -149 92 -229 146 l-73 48
0 -124z"/>
</g>
</svg>
